<svg width="127" height="106" viewBox="0 0 127 106" fill="none" xmlns="http://www.w3.org/2000/svg">
<g id="Frame">
<path id="Vector" d="M9.65032 89.6517C16.0236 89.6517 15.7706 90.2421 20.7466 90.2421L20.3249 65.5731L22.4755 53.85H26.1442H87.7957L87.7535 47.6933L31.6684 43.6872L52.7952 16.8254L87.7535 38.5425H100.953L51.5124 1.43359L7.37891 45.9643L9.65032 49.127V89.6517Z" fill="#6096D7"/>
<path id="Vector_2" d="M8.13294 90.9169H22.4341V64.0973V53.8673H24.7112H87.7964V47.6513L22.3497 45.4163L50.98 15.7499L87.7542 38.5427L49.9951 0L0 47.6934H8.13294V90.9169Z" fill="#0054A5"/>
<path id="Vector_3" d="M46.4694 33.3125H45.12C44.7474 33.3125 44.4453 33.6146 44.4453 33.9872V35.3366C44.4453 35.7093 44.7474 36.0113 45.12 36.0113H46.4694C46.8421 36.0113 47.1441 35.7093 47.1441 35.3366V33.9872C47.1441 33.6146 46.8421 33.3125 46.4694 33.3125Z" fill="#0054A5"/>
<path id="Vector_4" d="M51.6999 33.3125H50.3505C49.9779 33.3125 49.6758 33.6146 49.6758 33.9872V35.3366C49.6758 35.7093 49.9779 36.0113 50.3505 36.0113H51.6999C52.0725 36.0113 52.3746 35.7093 52.3746 35.3366V33.9872C52.3746 33.6146 52.0725 33.3125 51.6999 33.3125Z" fill="#0054A5"/>
<path id="Vector_5" d="M46.4694 38.541H45.12C44.7474 38.541 44.4453 38.8431 44.4453 39.2157V40.5651C44.4453 40.9378 44.7474 41.2398 45.12 41.2398H46.4694C46.8421 41.2398 47.1441 40.9378 47.1441 40.5651V39.2157C47.1441 38.8431 46.8421 38.541 46.4694 38.541Z" fill="#0054A5"/>
<path id="Vector_6" d="M51.6999 38.541H50.3505C49.9779 38.541 49.6758 38.8431 49.6758 39.2157V40.5651C49.6758 40.9378 49.9779 41.2398 50.3505 41.2398H51.6999C52.0725 41.2398 52.3746 40.9378 52.3746 40.5651V39.2157C52.3746 38.8431 52.0725 38.541 51.6999 38.541Z" fill="#0054A5"/>
<path id="Vector_7" d="M52.7931 58.3613H36.9375V90.916H52.7931V58.3613Z" fill="#0054A5"/>
<path id="Vector_8" d="M109.977 47.5664H117.609V54.5664H109.977V47.5664Z" fill="#0054A5"/>
<g id="Group" filter="url(#filter0_d_1_5118)">
<path id="Vector_9" d="M38.207 59.7129L45.5867 61.0201V88.2615L38.207 89.3157V59.7129Z" fill="#6096D7"/>
</g>
<path id="Vector_10" d="M66.7625 58.8947L73.3051 70.8613L79.9532 58.8947H88.0365L78.2648 75.1035L88.2053 91.3122H80.1643L73.3051 79.6411L66.5092 91.3122H58.4049L68.2821 75.1035L58.6581 58.8947H66.7625ZM102.114 48.0889V91.3122H94.2836V48.0889H102.114Z" fill="#0054A5"/>
<path id="Vector_11" d="M124.019 58.4747V64.3841H105.384V58.4747H124.019ZM109.985 50.708H117.625V81.1416C117.625 82.1687 117.779 82.9567 118.089 83.5054C118.413 84.04 118.835 84.4059 119.355 84.6029C119.876 84.7998 120.453 84.8983 121.086 84.8983C121.564 84.8983 122 84.8631 122.394 84.7928C122.802 84.7224 123.112 84.6591 123.323 84.6029L124.61 90.5756C124.202 90.7163 123.618 90.8711 122.859 91.0399C122.113 91.2088 121.198 91.3072 120.115 91.3354C118.201 91.3917 116.478 91.1032 114.944 90.4701C113.411 89.8229 112.194 88.8239 111.293 87.4731C110.407 86.1224 109.97 84.434 109.985 82.4079V50.708Z" fill="#0054A5"/>
</g>
<defs>
<filter id="filter0_d_1_5118" x="37.5323" y="59.2069" width="8.72905" height="30.952" filterUnits="userSpaceOnUse" color-interpolation-filters="sRGB">
<feFlood flood-opacity="0" result="BackgroundImageFix"/>
<feColorMatrix in="SourceAlpha" type="matrix" values="0 0 0 0 0 0 0 0 0 0 0 0 0 0 0 0 0 0 127 0" result="hardAlpha"/>
<feOffset dy="0.168677"/>
<feGaussianBlur stdDeviation="0.337354"/>
<feComposite in2="hardAlpha" operator="out"/>
<feColorMatrix type="matrix" values="0 0 0 0 0 0 0 0 0 0 0 0 0 0 0 0 0 0 0.15 0"/>
<feBlend mode="normal" in2="BackgroundImageFix" result="effect1_dropShadow_1_5118"/>
<feBlend mode="normal" in="SourceGraphic" in2="effect1_dropShadow_1_5118" result="shape"/>
</filter>
</defs>
</svg>
